<svg xmlns="http://www.w3.org/2000/svg" width="320" height="320" viewBox="0 0 320 320">
<rect x="0" y="0" width="320" height="320" fill="white" />
<line x1="0" y1="0" x2="0" y2="320" stroke="#ccc" />
<line x1="40" y1="0" x2="40" y2="320" stroke="#ccc" />
<line x1="80" y1="0" x2="80" y2="320" stroke="#ccc" />
<line x1="120" y1="0" x2="120" y2="320" stroke="#ccc" />
<line x1="160" y1="0" x2="160" y2="320" stroke="#ccc" />
<line x1="200" y1="0" x2="200" y2="320" stroke="#ccc" />
<line x1="240" y1="0" x2="240" y2="320" stroke="#ccc" />
<line x1="280" y1="0" x2="280" y2="320" stroke="#ccc" />
<line x1="320" y1="0" x2="320" y2="320" stroke="#ccc" />
<line x1="0" y1="0" x2="320" y2="0" stroke="#ccc" />
<line x1="0" y1="40" x2="320" y2="40" stroke="#ccc" />
<line x1="0" y1="80" x2="320" y2="80" stroke="#ccc" />
<line x1="0" y1="120" x2="320" y2="120" stroke="#ccc" />
<line x1="0" y1="160" x2="320" y2="160" stroke="#ccc" />
<line x1="0" y1="200" x2="320" y2="200" stroke="#ccc" />
<line x1="0" y1="240" x2="320" y2="240" stroke="#ccc" />
<line x1="0" y1="280" x2="320" y2="280" stroke="#ccc" />
<line x1="0" y1="320" x2="320" y2="320" stroke="#ccc" />
<path d="M 140.0 20.0 L 60.0 60.0 L 20.0 140.0 L 100.0 180.0 L 140.0 260.0 L 180.0 180.0 L 140.0 100.0 L 100.0 20.0 L 60.0 100.0 L 140.0 140.0 L 100.0 60.0 L 60.0 140.0 L 140.0 180.0 L 100.0 260.0 L 60.0 180.0 L 140.0 220.0 L 220.0 260.0 L 300.0 220.0 L 220.0 180.0 L 260.0 100.0 L 220.0 20.0 L 300.0 60.0 L 220.0 100.0 L 260.0 180.0 L 180.0 140.0 L 220.0 60.0 L 300.0 100.0 L 220.0 140.0 L 300.0 180.0 L 220.0 220.0 L 300.0 260.0 L 220.0 300.0" stroke="blue" stroke-width="3" fill="none" />
<circle cx="140.0" cy="20.0" r="6.666666666666667" fill="red" />
<text x="140.0" y="20.0" font-size="13.333333333333334" text-anchor="middle" dominant-baseline="central" fill="white">0</text>
<circle cx="60.0" cy="60.0" r="6.666666666666667" fill="red" />
<text x="60.0" y="60.0" font-size="13.333333333333334" text-anchor="middle" dominant-baseline="central" fill="white">1</text>
<circle cx="20.0" cy="140.0" r="6.666666666666667" fill="red" />
<text x="20.0" y="140.0" font-size="13.333333333333334" text-anchor="middle" dominant-baseline="central" fill="white">2</text>
<circle cx="100.0" cy="180.0" r="6.666666666666667" fill="red" />
<text x="100.0" y="180.0" font-size="13.333333333333334" text-anchor="middle" dominant-baseline="central" fill="white">3</text>
<circle cx="140.0" cy="260.0" r="6.666666666666667" fill="red" />
<text x="140.0" y="260.0" font-size="13.333333333333334" text-anchor="middle" dominant-baseline="central" fill="white">4</text>
<circle cx="180.0" cy="180.0" r="6.666666666666667" fill="red" />
<text x="180.0" y="180.0" font-size="13.333333333333334" text-anchor="middle" dominant-baseline="central" fill="white">5</text>
<circle cx="140.0" cy="100.0" r="6.666666666666667" fill="red" />
<text x="140.0" y="100.0" font-size="13.333333333333334" text-anchor="middle" dominant-baseline="central" fill="white">6</text>
<circle cx="100.0" cy="20.0" r="6.666666666666667" fill="red" />
<text x="100.0" y="20.0" font-size="13.333333333333334" text-anchor="middle" dominant-baseline="central" fill="white">7</text>
<circle cx="60.0" cy="100.0" r="6.666666666666667" fill="red" />
<text x="60.0" y="100.0" font-size="13.333333333333334" text-anchor="middle" dominant-baseline="central" fill="white">8</text>
<circle cx="140.0" cy="140.0" r="6.666666666666667" fill="red" />
<text x="140.0" y="140.0" font-size="13.333333333333334" text-anchor="middle" dominant-baseline="central" fill="white">9</text>
<circle cx="100.0" cy="60.0" r="6.666666666666667" fill="red" />
<text x="100.0" y="60.0" font-size="13.333333333333334" text-anchor="middle" dominant-baseline="central" fill="white">10</text>
<circle cx="60.0" cy="140.0" r="6.666666666666667" fill="red" />
<text x="60.0" y="140.0" font-size="13.333333333333334" text-anchor="middle" dominant-baseline="central" fill="white">11</text>
<circle cx="140.0" cy="180.0" r="6.666666666666667" fill="red" />
<text x="140.0" y="180.0" font-size="13.333333333333334" text-anchor="middle" dominant-baseline="central" fill="white">12</text>
<circle cx="100.0" cy="260.0" r="6.666666666666667" fill="red" />
<text x="100.0" y="260.0" font-size="13.333333333333334" text-anchor="middle" dominant-baseline="central" fill="white">13</text>
<circle cx="60.0" cy="180.0" r="6.666666666666667" fill="red" />
<text x="60.0" y="180.0" font-size="13.333333333333334" text-anchor="middle" dominant-baseline="central" fill="white">14</text>
<circle cx="140.0" cy="220.0" r="6.666666666666667" fill="red" />
<text x="140.0" y="220.0" font-size="13.333333333333334" text-anchor="middle" dominant-baseline="central" fill="white">15</text>
<circle cx="220.0" cy="260.0" r="6.666666666666667" fill="red" />
<text x="220.0" y="260.0" font-size="13.333333333333334" text-anchor="middle" dominant-baseline="central" fill="white">16</text>
<circle cx="300.0" cy="220.0" r="6.666666666666667" fill="red" />
<text x="300.0" y="220.0" font-size="13.333333333333334" text-anchor="middle" dominant-baseline="central" fill="white">17</text>
<circle cx="220.0" cy="180.0" r="6.666666666666667" fill="red" />
<text x="220.0" y="180.0" font-size="13.333333333333334" text-anchor="middle" dominant-baseline="central" fill="white">18</text>
<circle cx="260.0" cy="100.0" r="6.666666666666667" fill="red" />
<text x="260.0" y="100.0" font-size="13.333333333333334" text-anchor="middle" dominant-baseline="central" fill="white">19</text>
<circle cx="220.0" cy="20.0" r="6.666666666666667" fill="red" />
<text x="220.0" y="20.0" font-size="13.333333333333334" text-anchor="middle" dominant-baseline="central" fill="white">20</text>
<circle cx="300.0" cy="60.0" r="6.666666666666667" fill="red" />
<text x="300.0" y="60.0" font-size="13.333333333333334" text-anchor="middle" dominant-baseline="central" fill="white">21</text>
<circle cx="220.0" cy="100.0" r="6.666666666666667" fill="red" />
<text x="220.0" y="100.0" font-size="13.333333333333334" text-anchor="middle" dominant-baseline="central" fill="white">22</text>
<circle cx="260.0" cy="180.0" r="6.666666666666667" fill="red" />
<text x="260.0" y="180.0" font-size="13.333333333333334" text-anchor="middle" dominant-baseline="central" fill="white">23</text>
<circle cx="180.0" cy="140.0" r="6.666666666666667" fill="red" />
<text x="180.0" y="140.0" font-size="13.333333333333334" text-anchor="middle" dominant-baseline="central" fill="white">24</text>
<circle cx="220.0" cy="60.0" r="6.666666666666667" fill="red" />
<text x="220.0" y="60.0" font-size="13.333333333333334" text-anchor="middle" dominant-baseline="central" fill="white">25</text>
<circle cx="300.0" cy="100.0" r="6.666666666666667" fill="red" />
<text x="300.0" y="100.0" font-size="13.333333333333334" text-anchor="middle" dominant-baseline="central" fill="white">26</text>
<circle cx="220.0" cy="140.0" r="6.666666666666667" fill="red" />
<text x="220.0" y="140.0" font-size="13.333333333333334" text-anchor="middle" dominant-baseline="central" fill="white">27</text>
<circle cx="300.0" cy="180.0" r="6.666666666666667" fill="red" />
<text x="300.0" y="180.0" font-size="13.333333333333334" text-anchor="middle" dominant-baseline="central" fill="white">28</text>
<circle cx="220.0" cy="220.0" r="6.666666666666667" fill="red" />
<text x="220.0" y="220.0" font-size="13.333333333333334" text-anchor="middle" dominant-baseline="central" fill="white">29</text>
<circle cx="300.0" cy="260.0" r="6.666666666666667" fill="red" />
<text x="300.0" y="260.0" font-size="13.333333333333334" text-anchor="middle" dominant-baseline="central" fill="white">30</text>
<circle cx="220.0" cy="300.0" r="6.666666666666667" fill="red" />
<text x="220.0" y="300.0" font-size="13.333333333333334" text-anchor="middle" dominant-baseline="central" fill="white">31</text>
</svg>